<?xml version="1.0" encoding="UTF-8" standalone="no"?>
<svg width="26px" height="23px" viewBox="0 0 26 23" version="1.1" xmlns="http://www.w3.org/2000/svg" xmlns:xlink="http://www.w3.org/1999/xlink">
    <!-- Generator: Sketch 39.1 (31720) - http://www.bohemiancoding.com/sketch -->
    <title>Group 8</title>
    <desc>Created with Sketch.</desc>
    <defs>
        <path d="M12.843915,4.10084579 C12.8326144,4.08965888 12.8178938,4.08629439 12.8065931,4.07622196 L8.87307353,0.182271028 C8.65366667,-0.0349275701 8.29797222,-0.0349275701 8.07911765,0.182271028 C7.85973203,0.399469626 7.85973203,0.751584112 8.07911765,0.968214953 L11.0813105,3.94017056 L0.5655,3.94017056 C0.253330065,3.94017056 0,4.19097196 0,4.5 C0,4.80898598 0.253330065,5.05978738 0.5655,5.05978738 L11.0813105,5.05978738 L8.07913889,8.03174299 C7.85973203,8.24894159 7.85973203,8.60105607 8.07913889,8.81768692 C8.29854575,9.03433879 8.65421895,9.03488551 8.87307353,8.81768692 L12.8077402,4.92207477 C12.8190408,4.91254907 12.8331667,4.90920561 12.843915,4.89911215 C12.8614395,4.88176402 12.8614395,4.85768692 12.8761601,4.83865654 C12.9242304,4.77986215 12.9581536,4.71551636 12.9785033,4.64608178 C12.9858529,4.61922897 12.990951,4.5956986 12.9937761,4.56827804 C13.0169722,4.40200935 12.9734265,4.22846495 12.843915,4.10084579 L12.843915,4.10084579 Z" id="path-1"></path>
        <mask id="mask-2" maskContentUnits="userSpaceOnUse" maskUnits="objectBoundingBox" x="-2" y="-2" width="16.9997252" height="12.9610088">
            <rect x="-2" y="-1.98062792" width="16.9997252" height="12.9610088" fill="white"></rect>
            <use xlink:href="#path-1" fill="black"></use>
        </mask>
    </defs>
    <g id="Page-1" stroke="none" stroke-width="1" fill="none" fill-rule="evenodd">
        <g id="Assets-Page---Mietobjekte-&amp;-Vartrage" transform="translate(-1337.000000, -171.000000)">
            <g id="Group-7" transform="translate(1206.000000, 150.000000)">
                <g id="Group-6" transform="translate(132.000000, 22.000000)">
                    <g id="Group-8">
                        <g id="Capa_1" stroke="#010101" stroke-width="1.5">
                            <path d="M20.5325217,7.30330435 C20.5690435,7.09408696 20.592,6.87965217 20.592,6.66052174 C20.592,4.61217391 18.9313043,2.952 16.8834783,2.952 C16.4373913,2.952 16.010087,3.03495652 15.6125217,3.18 C14.4052174,1.308 12.3062609,0.0652173913 9.91304348,0.0652173913 C6.16695652,0.0652173913 3.13043478,3.10173913 3.13043478,6.84782609 C3.13043478,7.02365217 3.14347826,7.19634783 3.15704348,7.36904348 C1.344,7.824 0,9.45965217 0,11.4130435 C0,13.718087 1.86886957,15.5869565 4.17391304,15.5869565 L19.826087,15.5869565 C22.1311304,15.5869565 24,13.718087 24,11.4130435 C24,9.34956522 22.5005217,7.63982609 20.5325217,7.30330435 L20.5325217,7.30330435 Z" id="Shape"></path>
                        </g>
                        <g id="Capa_1" transform="translate(12.500000, 13.500000) rotate(-90.000000) translate(-12.500000, -13.500000) translate(6.000000, 9.000000)">
                            <g id="arrow-R">
                                <g id="Shape">
                                    <use fill="#000000" fill-rule="evenodd" xlink:href="#path-1"></use>
                                    <use stroke="#FFFFFF" mask="url(#mask-2)" stroke-width="4" xlink:href="#path-1"></use>
                                </g>
                            </g>
                        </g>
                    </g>
                </g>
            </g>
        </g>
    </g>
</svg>