<svg xmlns="http://www.w3.org/2000/svg" width="26" height="23" viewBox="-1 -1 26 23" xmlns:xlink="http://www.w3.org/1999/xlink">
  <defs>
    <path id="a" d="M12.844 4.1c-.01-.01-.026-.014-.037-.024L8.873.182c-.22-.217-.575-.217-.794 0-.22.217-.22.57 0 .786l3 2.972H.565C.253 3.94 0 4.19 0 4.5c0 .31.253.56.566.56H11.08l-3 2.972c-.22.217-.22.57 0 .786.22.216.574.217.793 0l3.935-3.896c.01-.01.025-.013.036-.023.017-.02.017-.044.032-.06.048-.06.082-.126.103-.196.004-.027.01-.05.012-.078.023-.166-.02-.34-.15-.467z"/>
    <mask id="b" width="17" height="12.961" x="-2" y="-2">
      <path fill="#fff" d="M-2-1.98h17v12.96H-2z"/>
      <use xlink:href="#a"/>
    </mask>
  </defs>
  <g fill="none" fill-rule="evenodd">
    <path stroke="#010101" stroke-width="1.5" d="M20.533 7.303c.036-.21.06-.423.06-.642 0-2.046-1.662-3.706-3.71-3.706-.446 0-.873.083-1.27.228-1.208-1.87-3.307-3.114-5.7-3.114C6.167.066 3.13 3.103 3.13 6.85c0 .175.013.347.027.52C1.344 7.824 0 9.46 0 11.413c0 2.305 1.87 4.174 4.174 4.174h15.652c2.305 0 4.174-1.87 4.174-4.174 0-2.063-1.5-3.773-3.467-4.11z"/>
    <g transform="rotate(-90 14 6)">
      <use fill="#000" xlink:href="#a"/>
      <use stroke="#FFF" stroke-width="4" mask="url(#b)" xlink:href="#a"/>
    </g>
  </g>
</svg>
