<?xml version="1.0" encoding="UTF-8" standalone="no"?>
<svg width="23px" height="15px" viewBox="0 0 23 15" version="1.1" xmlns="http://www.w3.org/2000/svg" xmlns:xlink="http://www.w3.org/1999/xlink">
    <!-- Generator: Sketch 39.1 (31720) - http://www.bohemiancoding.com/sketch -->
    <title>new-email-outline</title>
    <desc>Created with Sketch.</desc>
    <defs></defs>
    <g id="Page-1" stroke="none" stroke-width="1" fill="none" fill-rule="evenodd">
        <g id="Assets-Page---Mietobjekte-&amp;-Vartrage" transform="translate(-1254.000000, -160.000000)" stroke-width="0.5" stroke="#000000" fill="#000000">
            <g id="Group-7" transform="translate(1206.000000, 150.000000)">
                <g id="new-email-outline" transform="translate(49.000000, 11.000000)">
                    <g id="Capa_1">
                        <g id="Shape_17">
                            <path d="M20.9657423,1.73785617 C20.9657423,1.29467436 20.7889723,0.893724559 20.5069282,0.58802578 C20.5022349,0.581953867 20.5011729,0.574796472 20.4961028,0.568690638 C20.4914095,0.563331072 20.4849005,0.561160109 20.4798303,0.556173677 C20.1591436,0.22394844 19.7072153,0.0138398915 19.203969,0.0138398915 L1.76211582,0.0138398915 C1.25886949,0.0138398915 0.806941272,0.22394844 0.485535073,0.556173677 C0.480841762,0.561160109 0.473955954,0.563331072 0.469262643,0.569063772 C0.464192496,0.574796472 0.463130506,0.58229308 0.458437194,0.588398915 C0.176804241,0.894097693 0,1.29467436 0,1.73785617 L0,11.8988467 C0,12.3527815 0.184032626,12.763365 0.478306688,13.0716079 C0.484096248,13.078019 0.485911909,13.0859227 0.492420881,13.0920285 C0.494579119,13.0941655 0.497114192,13.0945047 0.499306688,13.0966757 C0.819993475,13.4203189 1.26647471,13.6229308 1.76215008,13.6229308 L19.2040033,13.6229308 C19.6996786,13.6229308 20.1465367,13.4199796 20.4668467,13.0963704 C20.4690049,13.0945387 20.47154,13.0938602 20.4736982,13.0920624 C20.4798646,13.0863297 20.481646,13.07846 20.4874356,13.0723541 C20.7820865,12.7641452 20.9661191,12.3531886 20.9661191,11.8988806 L20.9661191,1.73785617 L20.9657423,1.73785617 L20.9657423,1.73785617 Z M14.1034698,6.2813772 L20.1454405,1.32079376 C20.2047064,1.44823609 20.2397863,1.58890773 20.2397863,1.73782225 L20.2397863,11.8988128 C20.2397863,12.0334464 20.2115922,12.161228 20.1627749,12.2790027 L14.1034698,6.2813772 L14.1034698,6.2813772 Z M19.203969,0.724389417 C19.3561762,0.724389417 19.4997162,0.758751696 19.6302039,0.816757123 L10.4830424,8.32618725 L1.33588091,0.816757123 C1.46640294,0.758785617 1.6099429,0.724389417 1.76211582,0.724389417 L19.203969,0.724389417 L19.203969,0.724389417 Z M0.803344209,12.2786974 C0.754526917,12.1612958 0.72633279,12.0331411 0.72633279,11.8985075 L0.72633279,1.73785617 C0.72633279,1.58894166 0.761412724,1.44823609 0.82067863,1.32082768 L6.86264927,6.28141113 L0.803344209,12.2786974 L0.803344209,12.2786974 Z M1.76211582,12.9119742 C1.59438989,12.9119742 1.43817455,12.8689959 1.29792333,12.7995929 L7.42084502,6.73928087 L10.2498499,9.06190638 C10.3170979,9.11740163 10.4002414,9.14531886 10.4830424,9.14531886 C10.5658434,9.14531886 10.6489869,9.11740163 10.7162349,9.06190638 L13.5452398,6.73928087 L19.6681615,12.7995929 C19.527876,12.8690299 19.3717292,12.9119742 19.2039347,12.9119742 L1.76211582,12.9119742 L1.76211582,12.9119742 Z" id="Shape"></path>
                        </g>
                    </g>
                </g>
            </g>
        </g>
    </g>
</svg>