<?xml version="1.0" encoding="UTF-8" standalone="no"?>
<svg width="23px" height="24px" viewBox="0 0 23 24" version="1.1" xmlns="http://www.w3.org/2000/svg" xmlns:xlink="http://www.w3.org/1999/xlink">
    <!-- Generator: Sketch 39.1 (31720) - http://www.bohemiancoding.com/sketch -->
    <title>print-button</title>
    <desc>Created with Sketch.</desc>
    <defs></defs>
    <g id="Page-1" stroke="none" stroke-width="1" fill="none" fill-rule="evenodd">
        <g id="Assets-Page---Mietobjekte-&amp;-Vartrage" transform="translate(-1288.000000, -156.000000)" fill="#000000">
            <g id="Group-7" transform="translate(1206.000000, 150.000000)">
                <g id="print-button" transform="translate(82.000000, 6.000000)">
                    <g id="Capa_1">
                        <g id="Group">
                            <path d="M18.735405,4.947909 L18.2526663,4.947909 L18.2526663,0.570991778 C18.2526663,0.255686255 17.9976281,0 17.6830728,0 L4.48965053,0 C4.17489964,0 3.92010596,0.255686255 3.92010596,0.570991778 L3.92010596,4.94785997 L3.43707387,4.94785997 C1.55311666,4.94785997 0.0200509424,6.48462507 0.0200509424,8.3735655 L0.0200509424,15.4463915 C0.0200509424,17.335381 1.55311666,18.872048 3.43707387,18.872048 L3.92010596,18.872048 L3.92010596,23.3247641 C3.92010596,23.6401186 4.17489964,23.8957559 4.48965053,23.8957559 L17.6830728,23.8957559 C17.9976281,23.8957559 18.2526174,23.6400696 18.2526174,23.3247641 L18.2526174,18.872048 L18.7353561,18.872048 C20.6193133,18.872048 22.152379,17.335381 22.152379,15.4463915 L22.152379,8.37361453 C22.1524279,6.48462507 20.6193622,4.947909 18.735405,4.947909 L18.735405,4.947909 Z M5.0591462,1.14193453 L17.1136261,1.14193453 L17.1136261,4.947909 L5.0591462,4.947909 L5.0591462,1.14193453 L5.0591462,1.14193453 Z M17.1136261,22.7539684 L5.0591462,22.7539684 L5.0591462,15.7120797 L17.1136261,15.7120797 L17.1136261,22.7539684 L17.1136261,22.7539684 Z M21.0134855,15.4463915 C21.0134855,16.7057995 19.9915721,17.7302116 18.735405,17.7302116 L18.2526663,17.7302116 L18.2526663,15.7120797 L19.484381,15.7120797 C19.7991319,15.7120797 20.0538767,15.4564425 20.0538767,15.1410879 C20.0538767,14.8258314 19.7991319,14.5701452 19.484381,14.5701452 L17.6831218,14.5701452 L4.48965053,14.5701452 L2.85706368,14.5701452 C2.54255731,14.5701452 2.2875191,14.8258314 2.2875191,15.1410879 C2.2875191,15.4564915 2.54255731,15.7120797 2.85706368,15.7120797 L3.92010596,15.7120797 L3.92010596,17.7302116 L3.43707387,17.7302116 C2.18095568,17.7302116 1.15904228,16.7057015 1.15904228,15.4463915 L1.15904228,8.37361453 C1.15904228,7.11430456 2.18095568,6.08984353 3.43707387,6.08984353 L4.48960163,6.08984353 L17.682975,6.08984353 L18.735405,6.08984353 C19.9914743,6.08984353 21.0133877,7.11435359 21.0133877,8.37361453 L21.0133877,15.4463915 L21.0134855,15.4463915 L21.0134855,15.4463915 Z" id="Shape"></path>
                            <path d="M17.6830728,8.36660338 C17.2541294,8.36660338 16.9058299,8.71564086 16.9058299,9.14582134 C16.9058299,9.57600182 17.2539827,9.92503929 17.6830728,9.92503929 C18.1122119,9.92503929 18.4604137,9.57605084 18.4604137,9.14582134 C18.4603158,8.71564086 18.1122119,8.36660338 17.6830728,8.36660338 L17.6830728,8.36660338 Z" id="Shape"></path>
                            <path d="M6.38783902,17.6864287 L15.7846887,17.6864287 C16.099244,17.6864287 16.3542333,17.4308405 16.3542333,17.1154369 C16.3542333,16.8001804 16.0991951,16.5444941 15.7846887,16.5444941 L6.38783902,16.5444941 C6.07333265,16.5444941 5.81829445,16.8001804 5.81829445,17.1154369 C5.81829445,17.4308405 6.07333265,17.6864287 6.38783902,17.6864287 L6.38783902,17.6864287 Z" id="Shape"></path>
                            <path d="M6.38783902,19.8040894 L15.7846887,19.8040894 C16.099244,19.8040894 16.3542333,19.5483051 16.3542333,19.2330976 C16.3542333,18.9177431 16.0991951,18.6621549 15.7846887,18.6621549 L6.38783902,18.6621549 C6.07333265,18.6621549 5.81829445,18.9177431 5.81829445,19.2330976 C5.81829445,19.5484522 6.07333265,19.8040894 6.38783902,19.8040894 L6.38783902,19.8040894 Z" id="Shape"></path>
                        </g>
                    </g>
                </g>
            </g>
        </g>
    </g>
</svg>